<?xml version="1.0" encoding="utf-8"?>
<!-- Generator: Adobe Illustrator 24.0.2, SVG Export Plug-In . SVG Version: 6.00 Build 0)  -->
<svg version="1.1"
	 id="svg2" xmlns:cc="http://creativecommons.org/ns#" xmlns:dc="http://purl.org/dc/elements/1.1/" xmlns:inkscape="http://www.inkscape.org/namespaces/inkscape" xmlns:rdf="http://www.w3.org/1999/02/22-rdf-syntax-ns#" xmlns:sodipodi="http://sodipodi.sourceforge.net/DTD/sodipodi-0.dtd" xmlns:svg="http://www.w3.org/2000/svg"
	 xmlns="http://www.w3.org/2000/svg" xmlns:xlink="http://www.w3.org/1999/xlink" x="0px" y="0px" viewBox="0 0 32 32"
	 style="enable-background:new 0 0 32 32;" xml:space="preserve">
<style type="text/css">
	.st0{fill:none;}
	.st1{fill:#FFFFFF;}
</style>
<sodipodi:namedview  bordercolor="#666666" borderopacity="1" gridtolerance="10" guidetolerance="10" id="namedview3041" inkscape:current-layer="svg2" inkscape:cx="16" inkscape:cy="16" inkscape:pageopacity="0" inkscape:pageshadow="2" inkscape:window-height="480" inkscape:window-maximized="0" inkscape:window-width="640" inkscape:window-x="53" inkscape:window-y="24" inkscape:zoom="7.375" objecttolerance="10" pagecolor="#ffffff" showgrid="false">
	</sodipodi:namedview>
<g id="background">
	<rect id="rect3028" class="st0" width="32" height="32"/>
</g>
<path id="polygon3039" class="st1" d="M22,22h-4v2h4v4h2v-4h4v-2h-4v-4h-2V22z M32,23c0-3.9-2.5-7.2-6-8.5V4h-2V2h2V0H3
	C2.9,0,2.3,0,1.6,0.4C0.8,0.7,0,1.6,0,3c0,0,0,0,0,0v27c0,2,2,2,2,2h21.1l0,0C28,32,32,27.9,32,23z M2.9,4C2.7,4,2.4,3.9,2.3,3.7
	C2.1,3.6,2,3.5,2,3c0-0.6,0.2-0.7,0.4-0.9C2.6,2.1,2.7,2,2.9,2C3,2,3,2,3,2h19v2H3C3,4,3,4,2.9,4z M4,30V6h20v8.1
	c-0.3,0-0.7-0.1-1-0.1c-5,0-9,4-9,9c0,2.8,1.3,5.4,3.3,7H4z M23,30c-3.9,0-7-3.1-7-7c0-3.9,3.1-7,7-7c3.9,0,7,3.1,7,7
	C30,26.9,26.9,30,23,30z"/>
</svg>
