<?xml version="1.0" encoding="utf-8"?>
<!-- Generator: Adobe Illustrator 24.0.2, SVG Export Plug-In . SVG Version: 6.00 Build 0)  -->
<svg version="1.1" id="Layer_1" xmlns="http://www.w3.org/2000/svg" xmlns:xlink="http://www.w3.org/1999/xlink" x="0px" y="0px"
	 viewBox="0 0 85 120" style="enable-background:new 0 0 85 120;" xml:space="preserve">
<style type="text/css">
	.st0{fill:#DCDCDC;}
	.st1{enable-background:new    ;}
	.st2{fill:#6E6E6E;}
</style>
<g>
	<rect class="st0" width="85" height="120"/>
</g>
<g class="st1">
	<path class="st2" d="M7.3,35.4c0-0.1,0.1-0.2,0.2-0.2H9c0.1,0,0.2,0.1,0.2,0.2v15.4c0,0.1-0.1,0.2-0.2,0.2H7.6
		c-0.1,0-0.2-0.1-0.2-0.2V35.4z"/>
	<path class="st2" d="M21.8,51.1c-0.1,0-0.2-0.1-0.2-0.2v-7.5c0-1.4-0.5-2-1.5-2c-0.9,0-1.5,0.7-1.5,2v7.5c0,0.1-0.1,0.2-0.2,0.2H17
		c-0.1,0-0.2-0.1-0.2-0.2v-7.5c0-1.3-0.5-2-1.5-2c-0.9,0-1.5,0.7-1.5,2v7.5c0,0.1-0.1,0.2-0.2,0.2h-1.3c-0.1,0-0.2-0.1-0.2-0.2V40.1
		c0-0.1,0.1-0.2,0.2-0.2h1.3c0.1,0,0.2,0.1,0.2,0.2V41h0c0.4-0.7,1-1.3,2.1-1.3c1.1,0,1.9,0.4,2.2,1.3h0c0.4-0.8,1.2-1.3,2.3-1.3
		c1.8,0,2.8,1.1,2.8,3.4v7.7c0,0.1-0.1,0.2-0.2,0.2H21.8z"/>
	<path class="st2" d="M30.6,51.1c-0.1,0-0.2-0.1-0.2-0.2v-1h0c-0.3,0.9-1.1,1.4-2.1,1.4c-1.3,0-2.6-0.8-2.6-3.3
		c0-2.5,1.4-3.5,3.3-3.5h1.3c0.1,0,0.1,0,0.1-0.1v-0.9c0-1.5-0.4-2.1-1.7-2.1c-0.8,0-1.4,0.3-1.9,0.7c-0.1,0.1-0.3,0.1-0.4-0.1
		l-0.4-0.9c-0.1-0.1-0.1-0.3,0-0.4c0.7-0.6,1.7-1,2.9-1c2.2,0,3.2,1,3.2,3.7v7.5c0,0.1-0.1,0.2-0.2,0.2H30.6z M30.3,47.7v-1.5
		c0-0.1,0-0.1-0.1-0.1h-1.1c-1.3,0-1.8,0.7-1.8,1.9c0,1.2,0.5,1.8,1.4,1.8C29.6,49.8,30.3,48.9,30.3,47.7z"/>
	<path class="st2" d="M34.6,53.4c0-0.1,0-0.2,0.1-0.3l1.2-0.4c0.1,0,0.2,0,0.3,0.1c0.3,0.7,0.8,1,1.5,1c0.9,0,1.5-0.5,1.5-1.7v-2.4
		h0c-0.3,0.8-0.9,1.4-2.1,1.4c-1.3,0-2.1-0.6-2.4-1.8c-0.2-0.6-0.3-1.3-0.3-3.8c0-2.6,0.1-3.3,0.3-3.8c0.4-1.2,1.1-1.9,2.4-1.9
		c1.2,0,1.8,0.6,2.1,1.4h0v-0.9c0-0.1,0.1-0.2,0.2-0.2h1.3c0.1,0,0.2,0.1,0.2,0.2v11.8c0,2.4-1.3,3.6-3.3,3.6
		C36.1,55.5,34.9,54.7,34.6,53.4z M39,48.4c0.1-0.4,0.2-0.7,0.2-3c0-2.3,0-2.7-0.2-3c-0.2-0.6-0.7-1-1.3-1c-0.7,0-1.1,0.4-1.4,1
		c-0.1,0.4-0.2,0.7-0.2,3c0,2.3,0.1,2.7,0.2,3c0.2,0.6,0.6,1,1.4,1C38.4,49.4,38.8,49,39,48.4z"/>
	<path class="st2" d="M43.7,49.2c-0.2-0.5-0.3-1.1-0.3-3.7c0-2.6,0.1-3.2,0.3-3.7c0.4-1.3,1.5-2.1,3-2.1s2.6,0.7,3,2.1
		c0.2,0.5,0.3,1.1,0.3,4c0,0.1-0.1,0.2-0.2,0.2h-4.4c-0.1,0-0.1,0-0.1,0.1c0,1.8,0.1,2.2,0.2,2.5c0.2,0.6,0.7,1,1.3,1
		c0.8,0,1.3-0.4,1.5-1.3c0-0.2,0.1-0.2,0.3-0.2l1.2,0.3c0.1,0,0.2,0.1,0.2,0.3c-0.3,1.6-1.5,2.6-3.2,2.6
		C45.1,51.3,44.1,50.6,43.7,49.2z M48.2,44.4c0-1.5-0.1-1.8-0.2-2.1c-0.2-0.6-0.7-0.9-1.3-0.9c-0.7,0-1.1,0.4-1.3,0.9
		c-0.1,0.3-0.2,0.7-0.2,2.1c0,0.1,0,0.1,0.1,0.1H48C48.1,44.5,48.2,44.5,48.2,44.4z"/>
	<path class="st2" d="M61.8,51.1c-0.1,0-0.2-0.1-0.2-0.2v-7.5c0-1.3-0.5-2-1.5-2c-0.9,0-1.5,0.7-1.5,2v7.5c0,0.1-0.1,0.2-0.2,0.2H57
		c-0.1,0-0.2-0.1-0.2-0.2V40.1c0-0.1,0.1-0.2,0.2-0.2h1.3c0.1,0,0.2,0.1,0.2,0.2V41h0c0.4-0.7,1-1.3,2.1-1.3c1.7,0,2.6,1.1,2.6,3.4
		v7.7c0,0.1-0.1,0.2-0.2,0.2H61.8z"/>
	<path class="st2" d="M65.9,49.2c-0.2-0.6-0.2-1.1-0.2-3.7s0-3.1,0.2-3.7c0.4-1.4,1.5-2.1,3.1-2.1s2.6,0.8,3.1,2.1
		c0.2,0.6,0.2,1.1,0.2,3.7s0,3.1-0.2,3.7c-0.4,1.4-1.5,2.2-3.1,2.2S66.3,50.5,65.9,49.2z M70.3,48.6c0.1-0.4,0.1-0.7,0.1-3.2
		c0-2.4,0-2.7-0.1-3.1c-0.2-0.6-0.7-1-1.4-1c-0.7,0-1.2,0.4-1.4,1c-0.1,0.4-0.1,0.7-0.1,3.1c0,2.5,0,2.8,0.1,3.2
		c0.2,0.6,0.7,1,1.4,1C69.7,49.6,70.1,49.3,70.3,48.6z"/>
	<path class="st2" d="M77.5,51.2c-1.7,0-2.5-0.8-2.5-2.7v-7.1c0-0.1,0-0.1-0.1-0.1h-0.7c-0.1,0-0.2-0.1-0.2-0.2v-1
		c0-0.1,0.1-0.2,0.2-0.2h0.7c0.1,0,0.1,0,0.1-0.1v-3.2c0-0.1,0.1-0.2,0.2-0.2h1.3c0.1,0,0.2,0.1,0.2,0.2v3.2c0,0.1,0,0.1,0.1,0.1H78
		c0.1,0,0.2,0.1,0.2,0.2v1c0,0.1-0.1,0.2-0.2,0.2h-1.1c-0.1,0-0.1,0-0.1,0.1v7.1c0,0.7,0.3,1,0.9,1H78c0.1,0,0.2,0.1,0.2,0.2V51
		c0,0.1-0.1,0.2-0.2,0.2H77.5z"/>
</g>
<g class="st1">
	<path class="st2" d="M15,81.1c-0.1,0-0.2-0.1-0.2-0.2v-1h0c-0.3,0.9-1.1,1.4-2.1,1.4c-1.3,0-2.6-0.8-2.6-3.3c0-2.5,1.4-3.5,3.3-3.5
		h1.3c0.1,0,0.1,0,0.1-0.1v-0.9c0-1.5-0.4-2.1-1.7-2.1c-0.8,0-1.4,0.3-1.9,0.7c-0.1,0.1-0.3,0.1-0.4-0.1l-0.4-0.9
		c-0.1-0.1-0.1-0.3,0-0.4c0.7-0.6,1.7-1,2.9-1c2.2,0,3.2,1,3.2,3.7v7.5c0,0.1-0.1,0.2-0.2,0.2H15z M14.8,77.7v-1.5
		c0-0.1,0-0.1-0.1-0.1h-1.1c-1.3,0-1.8,0.7-1.8,1.9c0,1.2,0.5,1.8,1.4,1.8C14.1,79.8,14.8,78.9,14.8,77.7z"/>
	<path class="st2" d="M21.2,81.1c-0.1,0-0.2-0.1-0.3-0.2l-2.7-10.7c0-0.1,0-0.2,0.2-0.2h1.4c0.1,0,0.2,0.1,0.2,0.2l1.8,7.7h0
		l1.7-7.7c0-0.1,0.1-0.2,0.3-0.2h1.3c0.1,0,0.2,0.1,0.2,0.2l-2.7,10.7c0,0.2-0.1,0.2-0.3,0.2H21.2z"/>
	<path class="st2" d="M31.8,81.1c-0.1,0-0.2-0.1-0.2-0.2v-1h0c-0.3,0.9-1.1,1.4-2.1,1.4c-1.3,0-2.6-0.8-2.6-3.3
		c0-2.5,1.4-3.5,3.3-3.5h1.3c0.1,0,0.1,0,0.1-0.1v-0.9c0-1.5-0.4-2.1-1.7-2.1c-0.8,0-1.4,0.3-1.9,0.7c-0.1,0.1-0.3,0.1-0.4-0.1
		l-0.4-0.9c-0.1-0.1-0.1-0.3,0-0.4c0.7-0.6,1.7-1,2.9-1c2.2,0,3.2,1,3.2,3.7v7.5c0,0.1-0.1,0.2-0.2,0.2H31.8z M31.6,77.7v-1.5
		c0-0.1,0-0.1-0.1-0.1h-1.1c-1.3,0-1.8,0.7-1.8,1.9c0,1.2,0.5,1.8,1.4,1.8C30.9,79.8,31.6,78.9,31.6,77.7z"/>
	<path class="st2" d="M36.1,67.3c-0.1,0-0.2-0.1-0.2-0.2v-1.7c0-0.1,0.1-0.2,0.2-0.2h1.5c0.1,0,0.2,0.1,0.2,0.2v1.7
		c0,0.1-0.1,0.2-0.2,0.2H36.1z M36.1,81.1c-0.1,0-0.2-0.1-0.2-0.2V70.1c0-0.1,0.1-0.2,0.2-0.2h1.3c0.1,0,0.2,0.1,0.2,0.2v10.7
		c0,0.1-0.1,0.2-0.2,0.2H36.1z"/>
	<path class="st2" d="M43.2,81.2c-2.1-0.1-2.8-0.9-2.8-3.1V65.4c0-0.1,0.1-0.2,0.2-0.2H42c0.1,0,0.2,0.1,0.2,0.2v12.8
		c0,0.8,0.3,1.2,1,1.3l0.1,0c0.1,0,0.2,0.1,0.2,0.3V81c0,0.1-0.1,0.2-0.2,0.2L43.2,81.2z"/>
	<path class="st2" d="M50.2,81.1c-0.1,0-0.2-0.1-0.2-0.2v-1h0c-0.3,0.9-1.1,1.4-2.1,1.4c-1.3,0-2.6-0.8-2.6-3.3
		c0-2.5,1.4-3.5,3.3-3.5h1.3c0.1,0,0.1,0,0.1-0.1v-0.9c0-1.5-0.4-2.1-1.7-2.1c-0.8,0-1.4,0.3-1.9,0.7c-0.1,0.1-0.3,0.1-0.4-0.1
		l-0.4-0.9c-0.1-0.1-0.1-0.3,0-0.4c0.7-0.6,1.7-1,2.9-1c2.2,0,3.2,1,3.2,3.7v7.5c0,0.1-0.1,0.2-0.2,0.2H50.2z M49.9,77.7v-1.5
		c0-0.1,0-0.1-0.1-0.1h-1.1c-1.3,0-1.8,0.7-1.8,1.9c0,1.2,0.5,1.8,1.4,1.8C49.3,79.8,49.9,78.9,49.9,77.7z"/>
	<path class="st2" d="M56.1,80L56.1,80l0,0.9c0,0.1-0.1,0.2-0.2,0.2h-1.3c-0.1,0-0.2-0.1-0.2-0.2V65.4c0-0.1,0.1-0.2,0.2-0.2h1.3
		c0.1,0,0.2,0.1,0.2,0.2V71h0c0.3-0.8,0.9-1.4,2.1-1.4c1.2,0,2,0.6,2.4,1.8c0.2,0.6,0.3,1.2,0.3,4c0,2.8-0.1,3.3-0.3,4
		c-0.4,1.2-1.2,1.8-2.4,1.8C57,81.3,56.4,80.7,56.1,80z M59,78.6c0.1-0.4,0.2-0.7,0.2-3.2c0-2.4,0-2.7-0.2-3.1c-0.2-0.6-0.7-1-1.4-1
		c-0.7,0-1.2,0.4-1.4,1c-0.1,0.4-0.2,0.7-0.2,3.1c0,2.5,0,2.8,0.2,3.2c0.2,0.6,0.7,1,1.4,1C58.3,79.6,58.8,79.3,59,78.6z"/>
	<path class="st2" d="M66.1,81.2c-2.1-0.1-2.8-0.9-2.8-3.1V65.4c0-0.1,0.1-0.2,0.2-0.2h1.3c0.1,0,0.2,0.1,0.2,0.2v12.8
		c0,0.8,0.3,1.2,1,1.3l0.1,0c0.1,0,0.2,0.1,0.2,0.3V81c0,0.1-0.1,0.2-0.2,0.2L66.1,81.2z"/>
	<path class="st2" d="M68.5,79.2c-0.2-0.5-0.3-1.1-0.3-3.7c0-2.6,0.1-3.2,0.3-3.7c0.4-1.3,1.5-2.1,3-2.1s2.6,0.7,3,2.1
		c0.2,0.5,0.3,1.1,0.3,4c0,0.1-0.1,0.2-0.2,0.2h-4.4c-0.1,0-0.1,0-0.1,0.1c0,1.8,0.1,2.2,0.2,2.5c0.2,0.6,0.7,1,1.3,1
		c0.8,0,1.3-0.4,1.5-1.3c0-0.2,0.1-0.2,0.3-0.2l1.2,0.3c0.1,0,0.2,0.1,0.2,0.3c-0.3,1.6-1.5,2.6-3.2,2.6
		C69.9,81.3,68.9,80.6,68.5,79.2z M73,74.4c0-1.5-0.1-1.8-0.2-2.1c-0.2-0.6-0.7-0.9-1.3-0.9c-0.7,0-1.1,0.4-1.3,0.9
		c-0.1,0.3-0.2,0.7-0.2,2.1c0,0.1,0,0.1,0.1,0.1h2.7C73,74.5,73,74.5,73,74.4z"/>
</g>
</svg>
