<?xml version="1.0" encoding="utf-8"?>
<!-- Generator: Adobe Illustrator 24.0.2, SVG Export Plug-In . SVG Version: 6.00 Build 0)  -->
<svg version="1.1" id="Layer_1" xmlns="http://www.w3.org/2000/svg" xmlns:xlink="http://www.w3.org/1999/xlink" x="0px" y="0px"
	 viewBox="0 0 40 40" style="enable-background:new 0 0 40 40;" xml:space="preserve">
<style type="text/css">
	.st0{fill:#969696;}
</style>
<g>
	<path class="st0" d="M16.9,5.7c-5.9,0-10.7,4.8-10.7,10.7c0,6,4.9,10.8,10.8,10.8c2.8,0,5.3-1.1,7.1-2.8c0.5,0.7,1.1,1.9,1.8,3.1
		l1.9-1.9c-0.8-0.6-2.1-1.3-2.9-1.8c1.8-1.9,2.9-4.4,2.9-7.4C27.8,10.6,22.8,5.7,16.9,5.7z M23,22.8c-3.4,3.4-9,3.4-12.3,0
		s-3.4-9-0.1-12.3s9-3.4,12.3,0S26.3,19.4,23,22.8z"/>
	<path class="st0" d="M9.8,16.6c0-3.9,3.6-5.8,5.6-6.3c1.8-0.4,4.4-0.4,6.8,1.5c-1.4-1.3-3.3-2.3-5.3-2.3
		C12.8,9.5,9.8,12.6,9.8,16.6z"/>
	<path class="st0" d="M27,28.7c2.4,2.4,4.3,4.3,5.1,5.1c1.5,1.5,3.4-0.5,1.9-1.9c-0.8-0.8-2.7-2.7-5.2-5.2c-0.1,0-0.3-0.1-0.3-0.3
		l-1.9,1.9C26.9,28.6,26.9,28.7,27,28.7z"/>
</g>
</svg>
